<?xml version="1.0" encoding="utf-8"?>
<!-- Generator: Adobe Illustrator 24.2.3, SVG Export Plug-In . SVG Version: 6.00 Build 0)  -->
<svg version="1.1" id="Graphic_Elements" xmlns="http://www.w3.org/2000/svg" xmlns:xlink="http://www.w3.org/1999/xlink" x="0px"
	 y="0px" viewBox="0 0 1200 800" style="enable-background:new 0 0 1200 800;" xml:space="preserve">
<style type="text/css">
	.st0{opacity:0;}
	.st1{fill:none;}
</style>
<g id="ƒŒƒCƒ__1">
	<g id="_153951488">
		<g>
			<g>
				<path d="M99.7,415.2c-18.2,0-34.6-1.6-49.8-4.8l0.3-1.3c25.4,5.4,54.6,6.2,89.3,2.5c75-8.2,163.7-37.2,257.5-67.9
					c112.7-36.9,229.3-75,345.2-86.6c132.4-13.3,239.6,12,327.7,77.1c24.4,18.2,47,38.9,67.3,61.6c4.3,4.8,8.8,10,13.3,15.4l-1,0.8
					c-4.5-5.5-8.9-10.6-13.3-15.4c-20.2-22.7-42.7-43.3-67.1-61.4c-87.8-64.9-194.7-90.1-326.8-76.8
					C626.6,270,510.1,308.1,397.4,345c-93.9,30.7-182.6,59.7-257.8,67.9C125.5,414.4,112.2,415.2,99.7,415.2z"/>
			</g>
		</g>
		<g>
			<g>
				<path d="M95.1,445.7c-16.3,0-31.3-1.4-45.1-4.3l0.3-1.3c26.1,5.4,56.2,5.7,92,0.8c75.2-10.1,163.9-41.6,257.7-75
					c112.2-39.9,228.3-81.2,343.5-95.7c131.7-16.5,238.3,6.5,325.9,70.3c24.7,18.1,47.5,38.8,67.8,61.6c4.8,5.3,9.2,10.3,13.3,15.3
					l-1,0.8c-4.1-5-8.4-10-13.2-15.3c-20.3-22.8-43-43.4-67.6-61.4c-87.4-63.6-193.7-86.5-325-70c-115.1,14.4-231.1,55.7-343.2,95.6
					c-93.9,33.4-182.6,65-258,75.1C125.4,444.6,109.7,445.7,95.1,445.7z"/>
			</g>
		</g>
		<g>
			<g>
				<path d="M91.4,476.3c-14.9,0-28.7-1.3-41.6-3.8l0.3-1.3c27,5.3,57.9,5.1,94.7-0.9c75.5-12,164.2-46.1,258.1-82.3
					c111.7-43,227.2-87.4,341.8-104.7c130.9-19.7,236.9,1,324.2,63.4c24.9,17.9,48,38.7,68.4,61.6c4.8,5.3,9.1,10.3,13.2,15.3
					l-1,0.8c-4.1-4.9-8.4-9.9-13.2-15.2c-20.4-22.9-43.3-43.5-68.2-61.4c-86.9-62.2-192.7-82.9-323.2-63.2
					C630.5,301.9,515,346.3,403.4,389.3c-94,36.2-182.8,70.3-258.4,82.3C125.6,474.8,107.9,476.3,91.4,476.3z"/>
			</g>
		</g>
		<g>
			<g>
				<path d="M88.8,506.8c-13.8,0-26.7-1.2-38.8-3.5l0.2-1.3c27.7,5.4,59.5,4.6,97.3-2.5C223.2,485.7,312,449,406,410
					c219.4-90.8,468-193.8,662.4-57c25.2,17.9,48.4,38.7,69,61.7c4.7,5.2,9.3,10.6,13.1,15.2l-1,0.8c-3.8-4.5-8.3-9.9-13.1-15.1
					c-20.5-23-43.7-43.7-68.7-61.5c-193.9-136.4-442.1-33.6-661.2,57.1c-94.1,38.9-182.9,75.7-258.7,89.6
					C126.3,504.8,106.7,506.8,88.8,506.8z"/>
			</g>
		</g>
		<g>
			<g>
				<path d="M86.2,537.6c-12.9,0-24.9-1.1-36.3-3.2l0.2-1.3c28.3,5.3,61,4,100-4.1c76-15.8,164.8-55.2,258.9-96.9
					C536.9,375.5,669,316.9,797.9,301.4c70-8.5,131.1-3.2,186.9,15.9c62.4,21.5,118.2,61.5,165.7,118.9l-1,0.8
					c-47.4-57.2-102.9-97.1-165.1-118.5c-55.6-19.1-116.5-24.3-186.3-15.9c-128.7,15.5-260.7,74-388.4,130.6
					c-94.2,41.7-183.1,81.1-259.2,96.9C126.9,535.1,105.7,537.6,86.2,537.6z"/>
			</g>
		</g>
	</g>
	<g id="_153952280">
		<g>
			<g>
				<path d="M361.9,467.5c-37.8,0-75.1-3.6-111.4-10.9c-68.1-13.6-135.6-40.5-200.8-80l0.7-1.1c65.1,39.4,132.5,66.2,200.4,79.8
					c60.4,12.1,123.5,14.1,187.5,6c66.8-8.5,136.3-27.9,212.5-59.3c66.5-27.4,129.6-60.5,185.3-89.6c70.6-37,131.5-68.9,184.2-82.8
					c58-15.3,99.4-6.2,130.2,28.5l-1,0.9c-30.4-34.3-71.3-43.2-128.8-28.1c-52.6,13.8-113.5,45.7-184,82.7
					c-55.7,29.2-118.8,62.2-185.4,89.7c-76.3,31.4-145.9,50.9-212.8,59.3C412.8,465.8,387.2,467.5,361.9,467.5z"/>
			</g>
		</g>
		<g>
			<g>
				<path d="M353.3,494.4c-34.9,0-69.2-3.2-102.7-9.6c-68-12.9-135.6-39.5-200.8-79l0.7-1.1c65.1,39.4,132.5,65.9,200.4,78.8
					c60.4,11.5,123.5,12.6,187.5,3.3c67-9.7,136.7-30.7,213.1-64.3c66.7-29.3,129.9-64.3,185.7-95.2c70.3-38.9,131-72.6,183.6-87.7
					c57.9-16.7,99.1-8.3,129.8,26.3l-1,0.9c-30.3-34.2-71.1-42.4-128.4-25.9C968.7,256,908,289.6,837.8,328.5
					c-55.8,30.9-119.1,66-185.8,95.3c-76.5,33.6-146.4,54.6-213.5,64.4C409.9,492.3,381.4,494.4,353.3,494.4z"/>
			</g>
		</g>
		<g>
			<g>
				<path d="M345.1,521.5c-32,0-63.6-2.8-94.5-8.3C182.5,501,115,474.8,49.8,435.3l0.7-1.1c65.1,39.4,132.5,65.5,200.4,77.7
					c60.4,10.9,123.5,11.1,187.5,0.6c67.2-11,137.1-33.7,213.7-69.3c66.9-31.1,130.2-68.2,186.2-100.8
					c70-40.9,130.5-76.3,182.9-92.7c57.7-18.1,98.8-10.4,129.4,24.1l-1,0.9c-30.2-34.1-70.9-41.7-128-23.7
					c-52.3,16.4-112.7,51.7-182.7,92.6c-55.9,32.7-119.3,69.7-186.3,100.9c-76.8,35.7-146.8,58.4-214.1,69.4
					C407.1,519,375.9,521.5,345.1,521.5z"/>
			</g>
		</g>
		<g>
			<g>
				<path d="M337.2,548.7c-29.3,0-58.3-2.4-86.6-7.2C182.5,529.9,115,504,49.8,464.6l0.7-1.1c65.1,39.4,132.5,65.2,200.4,76.7
					c60.4,10.3,123.5,9.6,187.5-2.1c67.3-12.2,137.4-36.6,214.3-74.4c67-33,130.5-72,186.5-106.4c69.8-42.9,130.1-79.9,182.4-97.6
					c57.5-19.5,98.5-12.5,129.1,22l-1,0.9c-30.2-34-70.7-40.9-127.7-21.6c-52.1,17.6-112.3,54.6-182.1,97.5
					c-56,34.4-119.5,73.4-186.6,106.5c-76.9,37.9-147.1,62.2-214.6,74.5C404.4,545.6,370.6,548.7,337.2,548.7z"/>
			</g>
		</g>
		<g>
			<g class="st0">
				<path d="M1150,290c-120.7-136.2-377.7,207.5-711.6,274.4c-120.3,24.1-250.7,12.2-388.3-71l0,9.3c29.2,5.6,62,4.1,97.6-2.5
					c251.2-46,642.4-342.2,920.4-146.6c25.2,17.9,48.3,38.6,68.8,61.6c4.4,4.9,8.8,10,13.1,15.1v6.3
					C873,101.8,427.7,472,150.4,529.6c-36.6,7.6-70.3,9.8-100.3,4.1L50,471.9c28.5,5.6,60.4,4.7,94.9-0.9
					c251.2-39.8,644.4-323.3,923.6-123.6c24.9,17.9,47.8,38.6,68.3,61.5c4.4,4.9,8.8,10,13.2,15.2v-6.2c-4.3-5.3-8.8-10.4-13.3-15.3
					c-20.4-22.8-43.1-43.4-67.7-61.5C788.8,137.1,393.3,408,142.3,441.6c-33.5,4.5-64.4,4.9-92.2-0.8l0-6
					C187.7,518,318,532.9,438.4,513.2c333.9-54.6,590.9-375.1,711.6-238.9v7.8C1029.3,145.9,772.3,478,438.4,538.7
					C318,560.6,187.7,547.3,50.1,464v-87.9c137.6,83.2,267.9,101.1,388.3,85.9c333.9-42.4,590.9-339.6,711.6-203.4v7.8
					c-120.7-136.2-377.7,172.7-711.6,221.1c-120.4,17.5-250.7,1-388.3-82.2v4.4c27,5.7,57,6,89.5,2.5
					c251-27.4,648.6-285.6,929.9-77.5c24.4,18.2,46.9,38.8,67.2,61.5c4.5,5,8.9,10.2,13.3,15.4L1150,290z"/>
			</g>
			<g>
				<path d="M330,576c-26.9,0-53.4-2.1-79.4-6.2c-68.1-10.9-135.7-36.4-200.9-75.8l0.7-1.1c65.1,39.4,132.5,64.8,200.4,75.7
					c60.4,9.7,123.5,8.1,187.4-4.7c67.5-13.5,137.8-39.5,214.8-79.5c67.2-34.9,130.8-75.9,186.9-112
					c69.6-44.8,129.7-83.6,181.8-102.5c57.3-20.9,98.3-14.5,128.7,19.9l-1,0.9c-30.1-34-70.5-40.1-127.3-19.5
					c-51.9,18.9-112,57.6-181.5,102.4c-56.1,36.2-119.8,77.2-187,112.1c-77.1,40-147.5,66.1-215.1,79.6C402,572.3,365.7,576,330,576
					z"/>
			</g>
		</g>
	</g>
	<g>
		<path class="st1" d="M135.6,466.4c-3.6,1.5-6.8,4.4-9.6,8.8c-2.5,3.9-3.6,8.5-2.9,13.1c0.4,2.6,1.8,5.6,4.1,9
			c2.4,3,5.7,5.2,9.4,6.3c0.9-0.2,1.7,0.4,1.9,1.3c0,0,0,0.1,0,0.1c-0.1,0.3-0.4,0.6-0.7,0.8c-0.3,0.3-0.5,0.4-0.6,0.4
			c-5.9-0.5-11.4-3.1-15.6-7.2c-4.3-3.9-7.1-9.3-7.9-15c-0.3-1.5-0.4-3.1-0.4-4.6c0-2,0.3-3.9,0.7-5.8c1.7-9.5,7.4-17.7,15.5-22.9
			l-7.6-21.9c-4.2,4.7-8.1,9.6-11.7,14.8c-3.1,4.5-5.8,9.2-8.2,14.1c-2.3,4.8-4,9.8-5,15c-0.4,2.6-0.7,5.2-0.8,7.5
			c-0.1,2.6,0.1,5.2,0.6,7.7l0.6,4c0.5,1.2,0.8,2.1,1,2.6c0.9,2.2,2,4.4,3.3,6.5c2.6,4.2,6,7.9,10.1,10.8c3.9,3,8.4,5.3,13.3,6.5
			c5.1,1.3,10.4,1.5,15.6,0.7c4.2-0.7,8.4-2.1,12.2-3.9l-17.2-48.4L135.6,466.4z"/>
		<path class="st1" d="M117.2,400.8c2-1.4,4-3.9,6.2-7.6c1.2-1.7,2.2-3.5,3.1-5.4l2.8-6.3c1.8-4.3,3.2-8.8,4-13.4
			c0.8-4.1,1-8.3,0.6-12.4l-1.1-4.4c-0.4-1.9-1.5-3.7-3-5c-1.4-1-3.3-1.4-5-1c-3.7,0.6-6.7,3.4-9.1,8.6l-2.2,6.6l-1.6,8.5l-0.4,8.7
			l0.6,8.1c0.2,1.4,0.4,2.6,0.6,3.7c0.3,1.6,0.8,3.2,1.3,4.7C114.7,396.4,115.8,398.7,117.2,400.8z"/>
		<path class="st1" d="M162,473.5c-2.6-3-5.9-5.5-9.6-7.2c-3.9-1.5-8.2-2-12.3-1.3h0l17,47.4c9-5.4,12.5-14.7,10.5-27.8
			C166.6,480.6,164.7,476.8,162,473.5z"/>
		<path d="M174.5,500.2c2.9-6.6,3.9-13.9,2.7-21.1c-0.7-4.7-2.2-9.2-4.3-13.5c-2.1-4-4.8-7.7-8.1-10.8c-3.1-3.3-7-5.6-11.3-6.9
			c-4.4-1.5-9.1-1.9-13.6-1.1l-5.6,1.5l-8.8-24.4c4.4-5.6,8-11.8,10.7-18.4c2.5-6.7,4.2-13.6,5.1-20.7c0.4-1.8,0.6-3.6,0.8-5.4
			c0.1-1.1,0-3.2-0.1-6c-0.1-3.4-0.4-6.7-0.9-10.1c-2.3-15.1-7.9-27.6-16.9-37.2l-2.9-2.5c-0.7-0.3-1.4-0.5-2.2-0.5
			c-1.3,0.2-3.1,1.4-5.5,4c-2.5,2.5-4.7,6.3-6.5,11.2c-1.9,5.3-3,10.8-3.2,16.5c-0.5,6.5-0.3,13,0.8,19.5c0.8,5.2,2,10.2,3.5,15.2
			l5.9,15.6l0-0.1c-4.6,6.3-9,12.5-13,18.4l-4.7,7.6l-4.2,8.2c-0.8,1.7-1.4,3.1-2,4.5s-1.1,2.8-1.7,4.3l-2.7,9.4
			c-0.4,1.6-0.6,3.2-0.8,4.8c-0.3,1.5-0.4,3-0.5,4.5c-0.2,3.2,0,6.4,0.5,9.6c1.1,6.9,3.5,13.5,7.1,19.5c3.4,6,7.9,11.4,13.2,15.9
			c5.4,4.1,11.4,7.3,17.9,9.5c6.5,1.7,13.3,2.2,20,1.2l6-1.3l5.5-2l4.2,11.1l2.5,6.1c0.5,0.8,0.8,1.6,1.1,2.4c0.2,0.9,0.5,2.1,1,3.8
			c0.9,2.6,1.6,5.4,2,8.2c0.6,3.6,0.7,7.3,0.3,11l-1,3.4l-2.2,3.6c-1.9,2.4-4.3,4.5-7,6c-2.5,1.5-5.3,2.5-8.2,3
			c-5.7,0.8-10.1-0.5-13.1-4l1.5-0.2c3.6-0.4,6.9-2.4,9-5.4c2.1-3,2.9-6.6,2.3-10.2c-0.3-2.7-1.4-5.2-2.9-7.4
			c-1.5-2.2-3.6-3.9-6-4.9c-2.4-0.9-4.9-1.1-7.4-0.8c-2.8,0.5-5.3,1.8-7.2,3.8c-2,2.1-3.4,4.6-4.2,7.3l-0.9,4.7
			c-0.2,1.4-0.2,2.8,0,4.1c0.8,6.4,4.8,11.9,10.7,14.6c5.8,3.1,12.5,4.2,19.1,3.2c4.7-0.7,9.2-2.4,13.1-5.2
			c3.7-2.8,6.6-6.5,8.6-10.7c1.8-4.3,2.3-9.1,1.5-13.7l-2.3-10l-5-13.5l-4.7-12.8C166.2,512.6,171.5,507.1,174.5,500.2z
			 M112.5,389.3c-0.2-1-0.4-2.2-0.6-3.7l-0.6-8.1l0.4-8.7l1.6-8.5l2.2-6.6c2.5-5.2,5.5-8,9.1-8.6c1.7-0.4,3.6,0,5,1
			c1.5,1.3,2.6,3.1,3,5l1.1,4.4c0.4,4.1,0.3,8.3-0.6,12.4c-0.8,4.6-2.1,9.1-4,13.4l-2.8,6.3c-0.9,1.9-1.9,3.6-3.1,5.4
			c-2.1,3.6-4.2,6.2-6.2,7.6c-1.4-2.1-2.5-4.3-3.4-6.7C113.3,392.5,112.8,390.9,112.5,389.3z M140.8,518.8
			c-5.2,0.9-10.5,0.7-15.6-0.7c-4.8-1.2-9.3-3.4-13.3-6.5c-4-2.9-7.5-6.6-10.1-10.8c-1.2-2.1-2.3-4.3-3.3-6.5
			c-0.2-0.6-0.5-1.4-1-2.6l-0.6-4c-0.5-2.5-0.6-5.1-0.6-7.7c0.1-2.3,0.4-4.9,0.8-7.5c1-5.2,2.7-10.3,5-15c2.4-4.9,5.1-9.6,8.2-14.1
			c3.6-5.2,7.5-10.1,11.7-14.8l7.6,21.9c-8.1,5.1-13.8,13.4-15.5,22.9c-0.4,1.9-0.6,3.9-0.7,5.8c0,1.5,0.1,3.1,0.4,4.6
			c0.8,5.8,3.6,11.1,7.9,15c4.2,4.1,9.7,6.7,15.6,7.2c0.1,0,0.3-0.1,0.6-0.4c0.3-0.2,0.5-0.4,0.7-0.8c0,0,0-0.1,0-0.1
			c-0.2-0.9-1-1.5-1.9-1.3c-3.7-1.1-7-3.3-9.4-6.3c-2.4-3.4-3.8-6.4-4.1-9c-0.7-4.6,0.4-9.2,2.9-13.1c2.8-4.3,6-7.2,9.6-8.8l0.2,0.2
			l17.2,48.4C149.1,516.8,145,518.1,140.8,518.8z M157.2,512.5l-17-47.4h0c4.2-0.7,8.4-0.2,12.3,1.3c3.7,1.7,6.9,4.1,9.6,7.2
			c2.7,3.3,4.6,7,5.7,11.1C169.7,497.8,166.2,507.1,157.2,512.5z"/>
	</g>
	<g>
		<path class="st1" d="M1085.6,253.2l2.6,1.5c0.8,0.4,1.4,0.9,2,1.5l-0.1-0.7c-0.8-2.8-3.4-4.9-8-6.1c0.1,0.4,0.3,0.8,0.5,1.1
			c0.2,0.4,0.5,0.7,0.8,1C1084.1,252.2,1084.8,252.7,1085.6,253.2z"/>
		<path class="st1" d="M1085.9,249.1l1.1,0.8c0.8,0.5,1.4,1.2,2,1.9l-0.2-0.9c-0.3-1.1-0.9-2.1-1.7-2.9c-0.2-0.2-0.5-0.4-0.7-0.7
			c-0.1-0.1-0.4-0.3-0.7-0.5c-0.4-0.3-0.9-0.6-1.4-0.8c-0.9-0.4-2-0.9-3.6-1.4c0.2,0.8,0.6,1.5,1.1,2c0.7,0.7,1.5,1.3,2.4,1.7
			L1085.9,249.1z"/>
		<path class="st1" d="M1112.4,380.2c-0.3,0.3-0.5,0.7-0.6,1.1c-0.2,0.4-0.2,0.9-0.3,1.3c0,0.9,0,1.8,0.2,2.7l0.5,3
			c0.2,0.8,0.2,1.7,0.1,2.5l0.5-0.6C1114.4,388,1114.3,384.6,1112.4,380.2L1112.4,380.2z"/>
		<path class="st1" d="M1116.9,381.3c0-0.5-0.1-1-0.3-1.5c-0.2-0.8-0.6-2.1-1.2-3.7l0,0c-0.4,0.6-0.7,1.3-0.8,2.1c-0.1,1,0,2,0.3,3
			l0.3,1.7l0.2,1.3c0.1,0.9,0,1.8-0.2,2.7l0.7-0.8c0.7-0.9,1.1-2,1.1-3.2c0-0.3,0-0.6,0.1-0.9C1117,381.8,1116.9,381.6,1116.9,381.3
			z"/>
		<path class="st1" d="M1142.5,393.5c-0.5-1-1.2-1.9-2-2.7l-1.4-1.5l-1-0.9l-0.2-0.1c-0.4,1.5-0.3,3.1,0.4,4.5
			c0.8,1.7,1.7,3.3,2.7,4.9c0.9,1.3,1.7,2.7,2.2,4.1l0.5-1.5c0.2-0.6,0.3-1.2,0.3-1.8c0-0.6-0.1-1.2-0.2-1.8
			C1143.5,395.5,1143.1,394.4,1142.5,393.5z"/>
		<path d="M1117.8,373.1c0.2-0.4,0.4-0.8,0.7-1.1l-0.6-0.5l-15.8,21.5l-0.1,0.1c-0.2-0.8-0.7-1.4-1.4-1.9c-0.7-0.5-1.5-0.8-2.4-0.9
			c-0.9-0.2-1.9-0.1-2.8,0.1c-0.8,0.2-1.6,0.6-2.1,1.3c-0.5,0.6-0.6,1.3-0.5,2c0.2,0.7,0.7,1.4,1.3,1.8c0.7,0.5,1.6,0.8,2.4,1
			c0.9,0.2,1.9,0.2,2.8-0.1c0.8-0.2,1.6-0.7,2.1-1.4l7.8-10.6l1.3,3.5c0.3,0.8,0.4,1.6,0.6,2.4c0.2,0.7,0.2,1.5,0.1,2.3
			c-0.2,0.8-0.5,1.5-1,2.2c-1.1,1.3-2.4,2.3-3.8,3l0.4,0.3c0.9-0.3,1.7-0.7,2.4-1.3c0.2-0.1,0.4-0.3,0.7-0.5
			c0.1-0.2,0.3-0.3,0.4-0.5l0.8-1c0.6-0.8,1-1.7,1.1-2.7c0.6-0.5,1.1-1,1.5-1.6c0.5-0.6,0.8-1.3,1.1-2.1c2.6-2.1,3.9-5.4,3.4-8.8
			l-0.6-3.4c-0.1-0.3-0.2-0.7-0.2-1l0.1-1C1117.6,373.7,1117.7,373.4,1117.8,373.1z M1112.7,390.4l-0.5,0.6c0.1-0.8,0.1-1.7-0.1-2.5
			l-0.5-3c-0.1-0.9-0.2-1.8-0.2-2.7c0-0.4,0.1-0.9,0.3-1.3c0.1-0.4,0.3-0.8,0.6-1.1l0,0.1C1114.3,384.6,1114.4,388,1112.7,390.4z
			 M1116.9,383c0,1.2-0.4,2.3-1.1,3.2l-0.7,0.8c0.2-0.9,0.3-1.8,0.2-2.7l-0.2-1.3l-0.3-1.7c-0.3-1-0.4-2-0.3-3
			c0.1-0.7,0.4-1.5,0.8-2.1l0,0c0.6,1.6,1,2.9,1.2,3.7c0.2,0.5,0.3,1,0.3,1.5c0.1,0.2,0.1,0.5,0.1,0.8
			C1116.9,382.4,1116.8,382.7,1116.9,383z"/>
		<path d="M1083,265.5c-0.8,0.2-1.6,0.6-2.2,1.2c-0.8,0.6-1.4,1.4-1.8,2.2c-0.4,0.8-0.5,1.6-0.3,2.5c0.1,0.7,0.5,1.4,1.2,1.7
			c0.7,0.3,1.5,0.3,2.3,0.1c0.9-0.2,1.7-0.6,2.3-1.2c0.7-0.6,1.3-1.4,1.7-2.2c0.4-0.8,0.5-1.6,0.3-2.5l-3.2-12.8l3.5,1.2
			c0.8,0.2,1.6,0.6,2.3,1c0.7,0.3,1.3,0.8,1.8,1.4c0.5,0.6,0.8,1.4,1,2.2c0.3,1.6,0.3,3.3-0.1,4.9l0.5-0.1c0.3-0.9,0.5-1.8,0.5-2.7
			v-0.8c0-0.2,0-0.4-0.1-0.6l-0.3-1.4c-0.1-1-0.6-1.9-1.3-2.6c0-0.8-0.1-1.5-0.3-2.3c-0.2-0.8-0.5-1.5-0.9-2.2
			c0-0.9-0.1-1.7-0.3-2.5c-0.6-2.4-2.2-4.4-4.3-5.6l-2.9-1.7c-0.3-0.1-0.7-0.3-0.9-0.6l-0.8-0.7c-0.2-0.3-0.4-0.7-0.6-1
			c-0.2-0.3-0.4-0.7-0.5-1.1l-0.8,0.2l6.6,26C1084.6,265.3,1083.8,265.3,1083,265.5z M1080.9,244.6c1.6,0.6,2.7,1,3.6,1.4
			c0.5,0.2,1,0.4,1.4,0.8c0.3,0.2,0.6,0.4,0.7,0.5c0.2,0.2,0.4,0.5,0.7,0.7c0.8,0.8,1.4,1.8,1.7,2.9l0.2,0.9c-0.6-0.7-1.2-1.4-2-1.9
			l-1.1-0.8l-1.5-0.8c-0.9-0.4-1.7-1-2.4-1.7C1081.4,246,1081,245.3,1080.9,244.6z M1082.5,250.6c-0.2-0.4-0.4-0.7-0.5-1.1
			c4.6,1.2,7.2,3.3,8,6.1l0.1,0.7c-0.6-0.6-1.2-1.1-2-1.5l-2.6-1.5c-0.8-0.5-1.5-1-2.2-1.6C1083,251.3,1082.8,251,1082.5,250.6z"/>
		<path d="M1144.8,395.2c-0.1-0.6-0.3-1.3-0.6-1.9l-0.8-2.1c-0.6-1.2-1.2-2.4-2.1-3.5c-0.8-0.9-1.4-2-1.9-3.1
			c-0.2-0.5-0.3-1.1-0.4-1.7c0-0.6,0.1-1.2,0.2-1.8l-0.9-0.2l-6.5,28.5v-0.2c-0.6-0.7-1.5-1.2-2.4-1.4c-1.2-0.3-2.4-0.2-3.6,0.2
			c-1.2,0.3-2.4,0.9-3.4,1.7c-0.9,0.7-1.5,1.6-1.8,2.7c-0.1,0.5-0.1,1,0.1,1.4c0.1,0.4,0.3,0.7,0.6,1c0.7,0.7,1.5,1.2,2.4,1.3
			c1.1,0.3,2.3,0.3,3.5,0c0.6-0.2,0.9-0.3,0.9-0.3l0.8-0.3c0.5-0.2,1-0.6,1.4-0.9c0.9-0.7,1.5-1.7,1.8-2.7l3.7-16.2l0.8,0.6l1,1
			l0.6,0.7l0.4,0.3c3.3,2.8,4.6,5.8,3.8,8.9c-0.6,2.1-1.6,4-3,5.5l0.6,0.1c0.9-0.8,1.6-1.7,2.1-2.7c0.1-0.2,0.3-0.5,0.5-0.8
			c0.1-0.2,0.2-0.5,0.3-0.8l0.6-1.8c0.5-1.4,0.5-2.9,0-4.2c0.3-0.6,0.6-1.2,0.8-1.8c0.2-0.5,0.4-1.1,0.5-1.6
			C1145,397.9,1145,396.6,1144.8,395.2z M1143.6,400.2l-0.5,1.5c-0.5-1.5-1.2-2.9-2.2-4.1c-1.1-1.5-2-3.2-2.7-4.9
			c-0.6-1.4-0.8-3-0.4-4.5l0.2,0.1l1,0.9l1.4,1.5c0.8,0.8,1.5,1.7,2,2.7c0.6,1,1,2.1,1.2,3.2c0.1,0.6,0.2,1.2,0.2,1.8
			C1143.9,399.1,1143.8,399.7,1143.6,400.2z"/>
		<path d="M1106.6,354.3c1.1,0.4,2.4,0.5,3.6,0.4c1.3-0.1,2.5-0.5,3.6-1.2c0.9-0.5,1.7-1.3,2.1-2.3c0.8-2,0-3.5-2.2-4.3
			c-0.3-0.2-0.5-0.3-0.8-0.3c-0.3-0.1-0.6-0.1-0.8-0.2l-1.8-0.1c-1.3,0.1-2.5,0.4-3.6,1c-1,0.5-1.8,1.4-2.2,2.5l-0.1,0l-11.3,29.4
			l0.8,0.3c0.5-1.5,1.5-2.8,2.7-3.8c1.5-1.2,3.2-2.2,4.9-3.1c1.7-0.9,3.3-1.9,4.9-3.1c1.3-1,2.2-2.3,2.7-3.8
			c0.3-0.5,0.5-1.1,0.6-1.7c0.1-0.6,0.2-1.1,0.3-1.6l0.2-1.8V359c0-1.2-0.1-2.4-0.3-3.6h-0.7c0.2,1.7,0.2,3.4,0.1,5.1
			c0,1.4-0.3,2.7-0.8,4c-0.6,1.3-1.4,2.4-2.4,3.4c-1.2,1-2.5,1.7-4,2.2c-1.5,0.5-3,0.6-4.5,0.3l6.8-17.7
			C1104.9,353.4,1105.7,354,1106.6,354.3z"/>
		<path d="M1063.4,257.5c-0.1-1.6,0.2-3.1,0.9-4.5c0.9-1.7,2-3.3,3.2-4.9c1.2-1.5,2.2-3.2,3.1-4.9c0.7-1.4,1.1-3,0.9-4.5
			c-0.1-0.6-0.2-1.2-0.3-1.8c-0.1-0.5-0.2-1.1-0.4-1.6l-0.6-1.7l-0.7-1.6c-0.5-1.1-1.1-2.1-1.8-3.1l-0.6,0.3
			c0.9,1.4,1.6,2.9,2.2,4.5c0.5,1.3,0.8,2.6,0.8,4c0.1,1.4-0.2,2.7-0.8,4c-0.7,1.4-1.6,2.6-2.7,3.7c-1.1,1.1-2.5,1.8-3.9,2.1
			l-1.1-19c0.9,0.5,1.8,0.7,2.8,0.6c1.2-0.1,2.3-0.5,3.4-1.1c1.1-0.7,2-1.6,2.7-2.6c0.6-0.8,1-1.9,0.9-2.9c-0.2-2.2-1.4-3.2-3.8-3
			c-0.4,0-0.7,0.1-0.8,0.1c-0.3,0-0.6,0.1-0.8,0.2l-1.7,0.7c-1.1,0.6-2.1,1.4-2.8,2.4c-0.7,0.9-1,2.1-0.9,3.2v0.2l1.9,31.6
			L1063.4,257.5z"/>
		<path d="M1096.3,323.3c-7.1-0.5-14.3-1-21.4-1.7c-2.6,9.1-5.4,18.2-8,27.3c-2.6-3.5-9-0.8-9.9,2.9c-0.7,3.4,3.3,4.1,5.6,3.6
			c1.4-0.4,2.7-1.1,3.7-2.3c1.1-1.5,1.6-4.4,2.3-7.1c2-6.8,4.4-15.2,6.3-21.1c6.6,0.8,13.4,0.9,19.8,1.7c-2.4,8-4.7,15.9-7.1,23.9
			c-2.7-3.4-8.9-0.9-9.9,2.9c-0.3,1.4,0.4,2.8,1.6,3.5c2.8,1.4,6.2-0.4,7.6-2.5c0.9-1.4,1.8-4.9,2.5-7.6h0.2
			c2.3-7.6,5-16.9,6.9-23.5C1096.4,323.4,1096.4,323.4,1096.3,323.3z"/>
		<path d="M1109.2,262.1c1.3-0.8,2.3-1.9,2.9-3.2c0.7-1.8,0.4-4.7,0.4-7.4c0.1-7.1,0.1-15.9,0.4-22c6.6-1.1,13.2-2.7,19.5-3.7
			c-0.1,8.3-0.2,16.5-0.4,24.9c-3.6-2.4-8.8,1.5-8.7,5.5c0.2,1.4,1.1,2.5,2.4,2.9c3.1,0.7,5.9-2.1,6.7-4.3c0.6-1.7,0.4-5.2,0.4-8
			l0-0.2c0.1-7.9,0.3-17.7,0.4-24.5h-0.2c-7,1.4-14,2.8-21.1,4.1c-0.1,9.5-0.3,19-0.4,28.5c-3.5-2.6-8.9,1.6-8.7,5.5
			C1103.2,263.5,1107.1,263.2,1109.2,262.1z"/>
	</g>
	<g>
		<polygon class="st1" points="1007.1,239.8 1023.2,230.2 1022.6,228.8 1006.5,238.3 		"/>
		<polygon class="st1" points="830.3,257.5 837,257.3 839.3,249.2 832.7,249.4 		"/>
		<polygon class="st1" points="1020,222.8 1019.2,220.9 1003.1,230.5 1004,232.4 		"/>
		<polygon class="st1" points="1004.8,323.4 1009,326.6 1014.9,323 1010.7,319.8 		"/>
		<polygon points="765.1,223.7 765.1,223.7 765.1,223.5 		"/>
		<path d="M759.1,288.6l5.4-43.8c1,0.2,2,0.5,3,0.9c1.1,0.4,2.1,1,3,1.8c1.9,1.4,3.6,3.2,4.8,5.3c1.5,2,2.5,4.2,3,6.6
			c0.3,0.9,0.5,1.9,0.6,2.8c0.1,0.6,0.1,1.2,0.2,1.8l-0.3,2.2l-0.3,1.3l-0.8,2.9c-0.5,1.4-1,2.7-1.7,4l-2.5,4.6l-2.5,4.3l1.1,0.2
			c2.5-3.1,4.6-6.5,6.5-10c1.4-2.7,2.3-5.6,2.7-8.6c0.6-5.2-0.7-10.3-3.8-15.6l-4.1-6.3l-2.3-3.5l-1.5-2.6c-0.9-1.7-1.5-3.6-1.9-5.5
			c-0.6-2.5-0.9-5-0.8-7.5l-1.9-0.2l-2.4,20.1l-4.9,39.6c-1.2-1.3-3.4-2.2-6.3-2.5c-2.3-0.2-4.7,0.2-6.9,0.9
			c-2.4,0.8-4.6,2.1-6.4,3.9c-1.7,1.6-2.7,3.8-3,6.1c-0.4,1.9,0.3,3.9,1.7,5.3c1.5,1.4,3.3,2.3,5.4,2.5c2.5,0.3,5,0,7.4-0.9
			c2.4-0.6,4.5-1.9,6.2-3.7C757.7,293.3,758.8,291,759.1,288.6z"/>
		<path d="M838.1,345.1c-0.7-0.9-1.2-1.8-1.8-2.4l-2.2-2.6l-2.3-2.4c-1.6-1.5-3.4-2.9-5.2-4.2l-0.8,0.8c2.5,2,4.7,4.1,6.9,6.5
			c1.7,1.9,3.1,4,4.1,6.4c1.1,2.4,1.5,5,1.4,7.6c-0.2,2.9-0.9,5.6-2.2,8.2c-1.3,2.5-3.2,4.7-5.5,6.3l-14.9-32.5
			c1.9,0.3,3.8,0,5.5-0.8c2.1-1,3.8-2.5,5.2-4.3c1.5-1.8,2.6-4,3-6.4c0.5-1.9,0.4-3.9-0.3-5.7c-1.7-3.7-4.6-4.6-8.7-2.7
			c-0.5,0.2-1,0.4-1.5,0.8c-0.5,0.3-0.9,0.6-1.3,0.9l-2.5,2.4c-1.5,1.8-2.7,3.9-3.3,6.2c-0.7,2.1-0.5,4.3,0.5,6.3l24.7,53.8l1.5-0.6
			c-1.2-2.7-1.7-5.6-1.4-8.6c0.4-3.6,1.2-7.2,2.2-10.7c1-3.5,1.8-7,2.2-10.6c0.3-2.9-0.2-5.9-1.5-8.6
			C839.2,347.1,838.7,346.1,838.1,345.1z"/>
		<path d="M801.6,399.6c-2.7-14.7-6-32.5-8.4-45.2c-0.1,0-0.3,0.1-0.4,0.1c-12.3,5.2-24.8,10.3-37.2,15.4
			c3.2,17.5,6.5,35.1,9.7,52.6c-7.3-3.6-15.9,6.3-14,13.3c1.7,6.2,9,4.2,12.2,1.3c2.1-1.8,3.6-4.2,4.1-6.9c0.6-3.5-1-8.8-2-13.8
			c-2.5-13.1-5.5-29.2-7.3-40.7c11.7-4.4,23.3-9.8,34.5-13.9c2.8,15.3,5.6,30.6,8.5,45.9c-7.4-3.3-15.7,6-14,13.3
			c0.7,2.5,3,4.3,5.7,4.4c6,0,10.2-6,10.7-10.5c0.4-3.3-1.2-9.8-2.2-15L801.6,399.6z"/>
		<path d="M844.8,236.3l-1.6-0.5l-2.3,7.7l-6.7,0.2l2.5-8.2l-1.6-0.5l-2.5,8.6l-2.8,0.1l-1.7,5.8l2.8-0.1l-2.4,8.1l-2.8,0.1l0-0.1
			l-1.7,5.8l2.8-0.1l-2.3,7.5l1.6,0.5l2.3-8l6.7-0.2l-2.5,8.6l1.6,0.5l2.6-9l3-0.1l1.7-5.8l-3,0.1l2.3-8.1l3-0.1l1.7-5.8l-3,0.1
			L844.8,236.3z M837,257.3l-6.7,0.2l2.3-8.1l6.7-0.2L837,257.3z"/>
		<path d="M869.7,334.7L869.7,334.7c1.1-0.1,1.8-1,1.7-2s-1-1.8-2-1.7c-1,0.1-1.7,1-1.7,2C867.8,334,868.6,334.7,869.7,334.7
			C869.7,334.7,869.7,334.7,869.7,334.7z"/>
		<path d="M885.6,332.6c-1.6-0.1-2.9,1.1-3,2.7c0,0.2,0,0.4,0,0.6c0,0-0.5,3.4,3.4,3.2c0,0,1.9-0.1,0.9,1.5c0,0-3.3,4.1-7.9,0.4
			c-2.3-2.7-2.9-6.5-1.7-9.9c0,0,0.3-6.6,10.1-12.3c0,0,1.4-2.2-0.8-1.4c0,0-15.2,6.1-14.5,19c0,0,0.7,9.1,10,8.4l0,0.1
			c0,0,7.2-0.1,7.9-7.3C890,337.5,890,332.3,885.6,332.6z"/>
		<path d="M870.2,339.8c0,0-0.1,0-0.1,0L870.2,339.8c-1.1,0.1-1.8,1-1.8,2s1,1.8,2,1.7c1-0.1,1.7-1,1.7-2
			C872,340.5,871.2,339.8,870.2,339.8z"/>
		<path d="M876.1,280.8c0.9-2.8-1.4-4.9-3.8-5.5c-0.9-0.1-1.9-0.1-2.8-0.2c-0.8,0.2-1.6,0.3-2.3,0.5c-2,0.5-3.7,1.7-5.1,3.2
			c-1.1,1.4-1.2,3.5-1.7,5.5c-0.6,2.9-1.2,5.7-1.8,8.7c-2,9.5-4,19-6,28.5c0,0,0.1,0,0.1,0.1v0c0.4,0.1,0.8,0.1,1.1,0.2l-0.1-0.2
			c2.6-12.3,5.2-24.6,7.8-37C865.8,288.3,874.4,286,876.1,280.8z"/>
		<path d="M978.9,286.3l-1.7-2l-1.1-1.5c-0.7-1-1.2-2.1-1.6-3.3c-0.6-1.5-1-3-1.1-4.6h-1v37.7c-1.2-0.9-2.7-1.3-4.1-1.1
			c-1.5,0-2.9,0.4-4.2,1.1c-1.4,0.7-2.7,1.7-3.7,2.9c-0.9,1.1-1.4,2.5-1.4,4c-0.1,1.2,0.4,2.4,1.4,3.2c1,0.8,2.3,1.2,3.6,1.1
			c1.6,0,3.1-0.4,4.5-1.1c1.4-0.5,2.7-1.5,3.6-2.7c1-1.2,1.5-2.7,1.5-4.2v-27.8c0.7,0,1.4,0.2,2,0.4c2.1,0.8,4,2.1,5.4,3.9
			c1.1,1.1,1.9,2.4,2.4,3.9c0.3,0.8,0.5,1.3,0.6,1.7s0.2,0.8,0.3,1.1v1.5l-0.1,0.8l-0.3,1.9c-0.2,0.9-0.4,1.8-0.8,2.6l-1.2,3.1
			l-1.2,2.9h0.8c1.3-2.1,2.4-4.4,3.3-6.8c0.6-1.8,1-3.7,1-5.6c-0.1-3.5-1.3-6.8-3.6-9.5L978.9,286.3z"/>
		<polygon points="972.1,274.9 972.3,274.9 972.3,274.8 		"/>
		<path d="M1040.6,326.8c-0.4-1-1.1-1.8-2.1-2.2c-1-0.6-2.2-0.9-3.4-1c-1.2-0.1-2.5,0-3.7,0.4c-1.1,0.4-2,1.2-2.6,2.2
			c-0.5,0.8-0.7,1.7-0.4,2.6c0.2,0.5,0.4,1,0.8,1.4c0.3,0.3,0.6,0.6,1,0.8c1.2,0.7,2.6,1.1,3.9,1.1c1.3,0.1,2.7-0.1,3.8-0.7
			l-14.5,24.1l0.8,0.5l15.9-26.4C1040.8,328.8,1040.9,327.8,1040.6,326.8z"/>
		<path d="M1054.3,354.1c-0.1-0.4-0.4-0.7-0.8-0.9c-0.3-0.3-0.7-0.4-1.1-0.3c-0.4,0.1-0.8,0.3-1,0.7c-0.3,0.3-0.4,0.8-0.3,1.2l0.1,0
			c0.1,0.4,0.3,0.8,0.7,1c0.4,0.2,0.8,0.3,1.2,0.2c0.4-0.1,0.8-0.3,1-0.7C1054.3,355,1054.4,354.6,1054.3,354.1z"/>
		<path d="M1051.7,349.8c0.4-0.1,0.8-0.3,1-0.7c0.3-0.3,0.4-0.7,0.3-1.1c-0.1-0.4-0.3-0.8-0.7-1c-0.3-0.3-0.7-0.4-1.1-0.3
			c-0.4,0.1-0.7,0.3-1,0.7c-0.3,0.3-0.4,0.7-0.3,1.1h0c0.1,0.4,0.3,0.8,0.6,1C1050.9,349.8,1051.3,349.9,1051.7,349.8z"/>
		<path d="M1047.7,349.2c-0.9-1-2-1.7-3.2-2.2c-1.2-0.4-2.5-0.5-3.8-0.3c-1.2,0.2-2.3,0.7-3.3,1.3c-1,0.7-1.8,1.5-2.3,2.5
			c-0.5,1-0.7,2.2-0.5,3.3c0.2,0.9,0.7,1.6,1.4,2.1c0.8,0.4,1.7,0.5,2.6,0.4c0.5-0.1,1-0.3,1.4-0.7c0.4-0.3,0.7-0.8,0.8-1.2
			c0.1-0.4,0.2-0.9,0.1-1.3c-0.1-0.6-0.5-1.2-1-1.5c-0.6-0.3-1.2-0.5-1.9-0.4l-0.8,0.3l-0.6,0.3l-0.6-0.1c-0.2-0.1-0.3-0.2-0.3-0.4
			V351c0.2-1,0.7-1.8,1.5-2.4c0.8-0.6,1.7-1,2.6-1.1c0.9-0.2,1.9-0.1,2.7,0.4c0.8,0.5,1.4,1.2,1.8,2.1c0.2,0.4,0.4,0.9,0.6,1.3
			l0.4,1.5c0.1,0.6,0.1,1.1,0.1,1.7l-0.1,1.9c-0.1,0.7-0.1,1.3-0.3,1.9s-0.3,1-0.5,1.5c-0.4,1.3-1,2.6-1.8,3.8l-1.2,1.6
			c-0.3,0.4-0.5,0.6-0.6,0.8l-0.7,0.7l-3.6,3.8l0.2,0.3l0.3,0.6l3.9-3.1c0.6-0.6,1.2-1,1.5-1.3s0.7-0.7,1-0.9c1-0.9,1.8-1.9,2.6-3
			c0.5-0.7,0.8-1.2,1.1-1.7c0.3-0.5,0.6-1,0.8-1.6c1.1-2.1,1.5-4.5,1-6.9C1049.2,351.3,1048.6,350.1,1047.7,349.2z"/>
		<path d="M1021.3,311l-21,12.8l0.1,0.1l-0.8,0.5l5.7,4.4l-8.4,5.1l0.9,1.6l18.3-11.2l3.5-2.2l-5.8-4.4l8.3-5.1L1021.3,311z
			 M1014.9,323l-5.9,3.6l-4.2-3.2l5.9-3.6L1014.9,323z"/>
		<path d="M1002.9,288.1c1.5-1.7,2-4.1,1.2-6.3v-0.1l-11.4-25.9l-2.6-5.9l-0.6-1.4l-2.6-5.9l-0.9-1.9l16.1-9.6l0.9,1.9l2.6,5.9
			l0.6,1.4l2.6,5.9l8,18.2c-2.2-0.9-5-0.1-6.8,2.3c-2.2,2.6-2.1,6.2,0.1,8s5.6,1,7.8-1.7c1.5-1.7,2-4.1,1.2-6.3v-0.1l-9.2-21l16-9.6
			l5.8,13.2c-2.2-0.9-5-0.1-6.8,2.3c-2.2,2.6-2.1,6.2,0.1,8c2.2,1.8,5.6,1,7.8-1.7c1.5-1.7,2-4.1,1.2-6.3v-0.1l-7.1-16l-2.6-5.9
			l-0.5-1.4l-2.6-5.9l-0.8-1.9l-2.6-5.9l-1,0.6l-16.1,9.6l-1,0.6l-16.1,9.6l-1,0.6l2.6,5.9l0.6,1.9l2.6,5.9l0.6,1.4l2.6,5.9l10.2,23
			c-2.2-0.9-5-0.1-6.8,2.3c-2.2,2.6-2.1,6.2,0.1,8l-0.2,0.3C997.2,291.6,1000.7,290.8,1002.9,288.1z M1022.6,228.8l0.6,1.4
			l-16.1,9.6l-0.6-1.4L1022.6,228.8z M1019.2,220.9l0.8,1.9l-16.1,9.6l-0.8-1.9L1019.2,220.9z"/>
		<path d="M926.7,274.7c0.5-3.1-1.9-5.9-4.6-5.5c-4.4,0.8-10.2,5.9-8.4,11.1l0,0.1c3.3,8.8,6.7,17.6,10,26.3
			c-11.1,2.1-16.8-8.4-15-19.6v-0.1c-0.3,0-0.6,0.1-0.8,0.2c-0.4,2.8-0.5,5.7-0.5,8.6c0.2,8.8,7,12.1,12.1,14.6
			c1.6,0.8,3.5,1.5,4.8,2.7c1.7,1.7,3.1,3.7,4,5.9c0.4-0.1,0.8-0.3,1.2-0.4c-4.4-11.8-8.9-23.6-13.3-35.5
			C921.5,284.8,926.2,278.2,926.7,274.7z"/>
	</g>
	<g>
		<path class="st1" d="M375.1,483.5c-1.5-3.7-3.8-7.1-6.7-9.8c-2.7-2.9-5.6-5.5-8.8-7.8l-6-4l-4.2-2.4c-0.1,5.4,1.5,10.6,4.6,15
			c3.8,5.2,8.1,10.1,12.9,14.5c5.5,5.3,9,9.3,10.5,12.2l0.5-5.5c0-2.1-0.2-4.2-0.6-6.3C376.8,487.3,376.1,485.3,375.1,483.5z"/>
		<polygon class="st1" points="458.4,542.9 414.5,538.7 414.5,538.8 413.8,542.3 457.7,546.4 		"/>
		<polygon class="st1" points="409.3,561.8 453.3,566 454.3,561.2 410.3,557 		"/>
		<path class="st1" d="M528.1,295.3l2.9,4l2.3,3.2c1.3,2.2,2.4,4.6,3.1,7.1l0.7-2.7c0.6-3.2,0.2-6.5-1.1-9.5c-0.5-1.1-0.8-2-1-2.4
			c-0.2-0.3-0.7-1-1.2-1.9c-0.8-1.3-1.7-2.5-2.7-3.6c-1.7-1.9-4.2-4.5-7.8-7.8H523c-0.4,2.1-0.2,4.3,0.7,6.3
			C524.9,290.6,526.3,293.1,528.1,295.3z"/>
		<polygon class="st1" points="218.5,544.4 230.5,544 234.8,529.2 222.8,529.5 		"/>
		<path class="st1" d="M624.1,305.9l-0.7-4.5c-0.4-1.7-1-3.4-1.7-5c-0.8-1.5-1.8-3-2.9-4.2c-1.9-2.7-4.4-4.9-7.2-6.4
			c-2.7-1.8-5.6-3.3-8.6-4.4l-5.5-2.1l-3.8-1l-0.2,0.1c1,4.3,3.3,8.1,6.7,11c4.1,3.4,8.4,6.4,13.1,8.9
			C618.8,301.4,622.3,303.9,624.1,305.9z"/>
		<path class="st1" d="M521.5,303.2c1.1,2.3,2.4,4.5,4,6.6l5.1,6.9c1.5,1.8,2.7,3.9,3.6,6.1l0.4-1.9c1.3-8.2-3.3-16.6-14-25.1
			l-0.1,0.1c-0.2,1.2-0.2,2.4-0.1,3.6C520.6,300.7,521,302,521.5,303.2z"/>
		<path class="st1" d="M717.2,360.3c-1.2-0.9-2.6-1.7-4-2.3l-0.4,3.9c0.1,1.2,0.6,2.4,1.4,3.3c0.9,1.1,11.8,6.1,14.4,18.7
			C730.2,371.1,725.5,365.8,717.2,360.3z"/>
		<path class="st1" d="M692.2,341.8c0.2-0.5,0.6-1,0.9-1.9s0.8-1.8,1.3-3c0.5-1.3,0.8-2.6,0.9-4l0.3-2.5c-0.3,0.5-0.6,1-0.9,1.4
			c-0.4,0.5-0.8,0.9-1.3,1.3c-0.4,0.5-0.9,1-1.4,1.4c-0.5,0.5-1.1,0.9-1.7,1.2l-6.7,4.9c-2.2,1.7-4.2,3.7-5.9,5.8
			c-1.9,2.7-3.3,5.7-4.2,8.9l-0.3,0.1c4.2-1.1,8.1-3.1,11.6-5.6C687.7,347.7,690.2,345,692.2,341.8z"/>
		<path class="st1" d="M715.8,374.4c-1.2-0.9-2.5-1.7-4-2.3l-0.5,5.1c0.1,1.2,0.6,2.4,1.4,3.3h-0.1c1,1.1,11.8,6.3,13.6,19.7
			C728.7,385.8,724.3,380.2,715.8,374.4z"/>
		<path d="M380.6,498c0.3-2,0.4-3.9,0.4-5.9c0.1-4.7-0.8-9.3-2.6-13.6c-0.9-2.1-2-4.1-3.3-6l-4.5-6.4c-3-3.7-6.3-7.1-9.9-10.2
			c-3.3-2.7-6.2-5.8-8.7-9.2c-1.1-1.7-1.9-3.5-2.5-5.4c-0.5-2.1-0.7-4.2-0.8-6.3h-3.5l0.1,101.3c-2.6-1.9-5.8-2.9-9.1-2.8
			c-4.2,0.1-8.3,1.3-11.9,3.4c-3.9,2-7.3,4.8-10.1,8.3c-2.5,3-3.8,6.8-3.9,10.7c-0.1,1.7,0.4,3.3,1.2,4.7c0.6,1.3,1.6,2.4,2.8,3.1
			c2.8,1.7,6,2.6,9.2,2.5c4-0.1,8-1,11.7-2.7c2-1.1,3-1.7,3.1-1.8c0.9-0.5,1.7-1.1,2.5-1.7c1.6-1.2,3-2.6,4.1-4.2
			c2.5-3,3.9-6.8,4-10.7l-0.1-57.8l2.9,1.4l4.3,2.8l2.5,1.8l1.5,0.8c13.2,7,19.8,16,19.8,27.2c0,6-2,13.1-6,21h2
			c2.3-3.2,4-6.9,4.9-10.8c0.2-0.8,0.5-1.9,0.9-3.3c0.2-0.9,0.3-1.8,0.3-2.7l0.4-6.4c0-6.7-1.1-11.5-3.4-14.5
			C379.7,502.4,380.2,500.2,380.6,498z M377.3,501.2c-1.5-2.9-5-7-10.5-12.2c-4.8-4.4-9.1-9.2-12.9-14.5c-3.1-4.4-4.8-9.6-4.6-15
			l4.2,2.4l6,4c3.2,2.3,6.2,4.9,8.8,7.8c2.9,2.7,5.2,6.1,6.7,9.8c1,1.9,1.7,3.9,2.2,5.9c0.4,2.1,0.6,4.2,0.6,6.3L377.3,501.2z"/>
		<path d="M213.2,405.3c1.2,0.5,2.5,0.8,3.8,0.8c3.9,0.2,7.9-0.7,11.4-2.3c4-1.8,7-4,8.8-6.9l0.1-0.1l-5.7,80.3l2.7,0.2l6.2-87.2
			c0.2-3.4-0.7-5.9-2.7-7.7c-2.4-1.8-5.2-2.8-8.2-2.9c-3.4-0.2-6.8,0.4-10,1.7c-3.3,1.2-6.3,3.1-8.8,5.5c-2.2,2.4-3.6,5.5-3.8,8.8
			c-0.3,2.7,0.7,5.3,2.5,7.2C210.6,403.9,211.8,404.7,213.2,405.3z"/>
		<path d="M429.7,358.2l9.1,89.4l2.4-0.3c-0.5-4.4,0.2-8.9,2.1-13c2.4-5,5.2-9.8,8.5-14.2c3.2-4.5,5.9-9.2,8.3-14.2
			c1.8-4.1,2.5-8.6,2-13c-0.2-1.7-0.5-3.4-0.9-5.1c-0.3-1.5-0.8-3-1.3-4.4l-1.9-4.9l-2.2-4.5c-1.6-3-3.4-5.8-5.4-8.6l-1.6,0.9
			c2.5,4.1,4.8,8.3,6.7,12.7c1.5,3.6,2.5,7.3,2.8,11.2c0.4,4-0.3,8-1.8,11.7c-1.6,4-4,7.7-7.2,10.6c-3.1,3.1-6.9,5.3-11.1,6.4
			l-5.5-53.7c2.5,1.2,5.4,1.7,8.2,1.4c3.4-0.5,6.7-1.8,9.6-3.7c3.1-1.9,5.7-4.6,7.5-7.7c1.9-3.1,2.7-5.9,2.5-8.5
			c-0.6-6.1-4.3-8.8-11.2-8.2c-0.8,0.1-1.6,0.2-2.5,0.4c-0.5,0.1-1.4,0.4-2.4,0.7l-4.7,2.2c-3.1,1.9-5.8,4.4-7.8,7.3
			c-1.9,2.7-2.7,6-2.3,9.3L429.7,358.2z"/>
		<path d="M285,428.7c-3.5-1.3-7.3-1.8-11-1.3c-3.6,0.5-7.1,1.9-10,4c-2.7,2.1-5,4.7-6.7,7.7c-1.7,2.9-2.6,6.2-2.8,9.5
			c-0.1,3.3,0.9,6.5,3,9.1c1.5,2,3.8,3.3,6.3,3.5c2.5,0.1,5.1-0.7,7.1-2.3c1.2-0.9,2.2-2,2.8-3.4c0.6-1.3,0.8-2.7,0.6-4.1
			c-0.2-1.2-0.6-2.4-1.4-3.4c-1.1-1.4-2.7-2.3-4.5-2.5c-1.9-0.2-3.7,0.4-5.2,1.5l-1.6,1.7l-1.1,1.3l-1.6,0.5
			c-0.5,0.1-0.9-0.1-1.2-0.5l-0.5-0.9c-0.8-2.7-0.5-5.5,0.8-8c1.4-2.4,3.2-4.5,5.4-6.2c2.1-1.7,4.7-2.5,7.3-2.3
			c2.6,0.3,5,1.3,7.1,2.9c1.2,0.8,2.3,1.7,3.3,2.7l2.8,3.3c0.9,1.3,1.7,2.6,2.5,4l2.3,4.8c0.6,1.9,1.2,3.7,1.6,5.2
			c0.4,1.4,0.8,2.9,0.9,4.4c0.7,3.9,0.8,7.9,0.3,11.9l-0.8,5.6c-0.2,1.1-0.4,2-0.5,2.5c-0.2,0.9-0.5,1.7-0.8,2.5l-4.3,14.2l0.2-0.2
			l1.5,1.1l5.8-13c0.9-2.1,1.7-3.8,2.2-5.3s1-2.7,1.4-3.9c1.2-3.6,2.2-7.3,2.8-11c0.3-2.1,0.5-4,0.7-5.6c0.1-1.6,0.2-3.3,0.2-5.2
			c0.1-6.8-2-13.4-6.1-18.7C291.4,432.2,288.4,430,285,428.7z"/>
		<path d="M289.8,425.2c0.7,1,1.8,1.6,3,1.7c1.2,0.2,2.4,0,3.3-0.8c1-0.7,1.6-1.8,1.7-3c0.2-1.2-0.1-2.4-0.8-3.3
			c-1.5-1.9-4.2-2.3-6.2-0.9C288.8,420.4,288.4,423.1,289.8,425.2L289.8,425.2z"/>
		<path d="M305,432.5c-1.1-0.2-2.3,0-3.2,0.7c-0.9,0.7-1.6,1.8-1.7,3c-0.2,1.2,0.1,2.4,0.8,3.4l0.1,0.1c0.7,1,1.9,1.6,3.1,1.8
			c1.2,0.1,2.4-0.3,3.3-1c0.9-0.7,1.5-1.8,1.7-2.9c0.1-1.2-0.2-2.4-1-3.4C307.4,433.2,306.3,432.6,305,432.5z"/>
		<path d="M388.5,369.8c-4.1-22.2-9.1-49.4-12.7-68.6c-0.2,0-0.4,0.1-0.6,0.1c-18.7,7.9-37.5,15.6-56.4,23.3
			c4.9,26.5,9.9,53.2,14.8,79.7c-11.1-5.4-24.1,9.5-21.2,20c2.5,9.4,13.6,6.4,18.6,2c2.9-2.6,5.6-6.6,6.3-10.4
			c0.8-5.3-1.6-13.5-3-21c-3.7-19.9-8.5-44.4-11.1-61.7c17.7-6.7,35.4-14.9,52.3-21.2c4.3,23.2,8.6,46.4,12.9,69.6
			c-11.3-4.9-23.8,9.1-21.2,20c1.1,3.8,4.6,6.5,8.6,6.7c9.1,0,15.3-9.1,16.2-15.9c0.7-4.9-1.8-14.8-3.3-22.7L388.5,369.8z"/>
		<polygon points="210.1,544.5 210.2,544.5 210.2,544.5 		"/>
		<path d="M244.9,505.3l-2.9-0.8l-4.1,14l-12,0.4l4.4-14.8l-2.9-0.9l-4.7,15.8l-5.1,0.2l-3.1,10.6l5.1-0.2l-4.3,14.8l-5,0.2
			l-3.1,10.6l5.1-0.2l-4,13.6l2.9,0.8l4.3-14.6l12-0.4l-4.6,15.4l2.9,0.8l4.9-16.5l5.5-0.2l3.1-10.6l-5.5,0.2l4.3-14.7l5.5-0.2
			l3.1-10.6l-5.4,0.2L244.9,505.3z M230.5,544l-12,0.4l4.3-14.8l12-0.4L230.5,544z"/>
		<path d="M596.8,470.4l-7.2-5.8l-4-3.3l-2.7-2.5c-1.6-1.7-3.1-3.7-4.2-5.7c-1.6-2.7-2.9-5.6-3.8-8.6l-2.3,0.5l0.1,0.1l4.5,24.7
			L586,518c-2-1.1-4.8-1.4-8.4-0.8c-2.8,0.6-5.5,1.8-7.7,3.6c-2.5,1.8-4.5,4.2-6,6.9c-1.3,2.5-1.8,5.5-1.2,8.3
			c0.3,2.4,1.7,4.5,3.9,5.5c2.2,1,4.7,1.3,7.2,0.8c3-0.7,5.9-2,8.4-3.8c2.5-1.6,4.6-3.9,5.9-6.6c1.5-2.6,2-5.7,1.4-8.7l-9.8-53.5
			c1.3-0.2,2.6-0.2,3.9,0c1.4,0.2,2.9,0.5,4.2,1c2.8,1,5.4,2.5,7.6,4.4c2.4,1.8,4.5,4.1,6,6.7c0.6,1,1.2,2,1.7,3.1
			c0.3,0.7,0.6,1.4,0.8,2.1c0.2,0.9,0.3,1.9,0.5,2.7l0.2,1.7l0.2,3.8c-0.1,1.8-0.3,3.6-0.6,5.4L603,507l-1.4,6l1.4-0.3
			c1.8-4.6,3.2-9.3,4-14.1c0.6-3.7,0.6-7.5,0-11.2C605.7,481.1,602.5,475.5,596.8,470.4z"/>
		<path d="M494,357.8c2.5,0.4,5.1,0.2,7.5-0.6c2.6-0.7,5-2.1,7-3.8c1.8-1.6,3.1-3.7,3.5-6.1l6.1-37l7.7,7.1c1.7,1.6,3.2,3.4,4.6,5.3
			c1.4,1.7,2.5,3.6,3.1,5.7c0.6,2.2,0.7,4.5,0.3,6.8c-0.6,3.6-2.5,7.8-5.8,12.6l1.3,0.2c1.8-1.9,3.2-4.1,4.2-6.5
			c0.3-0.7,0.6-1.4,0.9-2.1c0.2-0.5,0.4-1.1,0.5-1.6l0.8-3.9c0.7-3.8,0.4-6.5-0.6-8.4c0.9-1.9,1.5-4,1.9-6.1
			c0.4-2.2,0.4-4.5,0.1-6.7c1-2.2,1.7-4.6,2.2-7c1.2-6.9-0.6-14-4.9-19.6l-5.8-7.7c-0.7-0.8-1.3-1.6-1.8-2.5l-1.2-2.6
			c-0.3-1-0.5-2-0.6-3.1c-0.1-1.2,0-2.4,0.2-3.6l-2.1-0.4l-12.3,75.1l-0.1,0.3c-1.6-1.6-3.7-2.6-6-2.9c-2.4-0.4-4.9-0.1-7.2,0.7
			c-2.6,0.7-5.1,2-7.1,3.8c-1.9,1.6-3.1,3.7-3.6,6.1c-0.5,2,0.1,4.2,1.4,5.7C489.8,356.5,491.8,357.5,494,357.8z M523,281.7h0.1
			c3.6,3.3,6.1,5.9,7.8,7.8c1,1.1,2,2.3,2.7,3.6c0.6,0.9,1.1,1.5,1.2,1.9c0.2,0.4,0.5,1.2,1,2.4c1.3,3,1.7,6.3,1.1,9.5l-0.7,2.7
			c-0.7-2.5-1.8-4.9-3.1-7.1l-2.3-3.2l-2.9-4c-1.8-2.2-3.3-4.6-4.4-7.2C522.9,286,522.6,283.8,523,281.7z M520.5,295.8L520.5,295.8
			c10.8,8.5,15.4,16.8,14.1,25l-0.4,1.9c-0.9-2.2-2.1-4.3-3.6-6.1l-5.1-6.9c-1.6-2-2.9-4.3-4-6.6c-0.5-1.2-0.9-2.5-1.1-3.8
			C520.3,298.2,520.3,297,520.5,295.8z"/>
		<path d="M605.1,302.6l2.3,0.9l1.3,0.3c11.8,2.9,18.9,8.8,21.2,17.7c1.2,4.8,1,10.7-0.6,17.9l1.6-0.4c1.2-3,1.9-6.2,1.8-9.5
			c0-0.7,0-1.6,0.1-2.8c-0.1-0.7-0.2-1.4-0.4-2.2l-0.9-5.2c-1.3-5.3-3.2-8.8-5.5-10.8c0.1-1.9,0-3.7-0.2-5.5
			c-0.2-1.6-0.5-3.2-0.8-4.8c-0.8-3.8-2.5-7.3-4.8-10.3c-1.1-1.5-2.3-2.9-3.8-4.1l-4.9-4.2c-3.1-2.3-6.4-4.3-9.9-6.1
			c-3.1-1.5-6.1-3.4-8.7-5.6c-1.2-1.1-2.2-2.4-3-3.8c-0.9-1.5-1.5-3.1-1.9-4.8l-2.7,0.7l20.2,80.5c-2.5-1.1-5.3-1.2-7.9-0.5
			c-3.3,0.9-6.3,2.6-8.8,5c-2.6,2.4-4.8,5.4-6.3,8.7c-1.4,2.9-1.7,6.2-0.9,9.3c0.3,1.3,0.9,2.5,1.9,3.5c0.7,0.9,1.7,1.6,2.8,1.9
			c2.5,0.9,5.3,0.9,7.8,0.2c3.2-0.8,6.2-2.3,8.8-4.4c1.3-1.2,2-1.9,2.1-2c0.6-0.6,1.2-1.2,1.7-1.9c3-3.8,4.3-8.7,3.4-13.5
			l-11.6-45.9l2.6,0.6L605.1,302.6z M593.5,278.3l0.2-0.1l3.8,1l5.5,2.1c3,1.2,5.9,2.6,8.6,4.4c2.9,1.5,5.4,3.7,7.2,6.4
			c1.2,1.3,2.1,2.7,2.9,4.2c0.7,1.6,1.3,3.3,1.7,5l0.7,4.5c-1.8-2-5.4-4.5-10.8-7.6c-4.6-2.6-9-5.6-13.1-8.9
			C596.9,286.5,594.6,282.6,593.5,278.3z"/>
		<path d="M685.9,354.4c6.1-5.7,9.6-12,10.5-18.6c0.4-2.3,0.4-4.7,0-7c1.6-2.5,2.6-5.4,3-8.4c0.5-4.8-0.2-9.6-2-14l-1,0.8
			c1.3,3.9,1.7,8,1.2,12c-0.6,4-2,7.1-4.3,9.2c-3,2.6-8.9,5.8-17.8,9.6l4.4-32.8c1.8,1.3,3.9,2.2,6.1,2.5c2.7,0.3,5.5,0,8-1
			c2.6-0.9,5-2.4,7-4.4c1.6-1.6,2.7-3.7,3.1-6c0.1-4.5-2.3-7-7.2-7.7c-2.6-0.3-5.2-0.1-7.6,0.7c-2.7,0.8-5.1,2.1-7.2,4
			c-1.8,1.7-3,4-3.4,6.5l-9.3,68.5l2.1,0.3c0.4-1.9,1.3-3.7,2.6-5.3c1.8-1.7,3.8-3.2,5.9-4.5l3.5-2.3L685.9,354.4z M673.2,355.6
			l0.3-0.1c0.9-3.2,2.3-6.2,4.2-8.9c1.7-2.2,3.7-4.1,5.9-5.8l6.7-4.9c0.6-0.3,1.2-0.7,1.7-1.2c0.5-0.4,1-0.9,1.4-1.4
			c0.5-0.4,0.9-0.8,1.3-1.3c0.3-0.4,0.7-0.9,0.9-1.4l-0.3,2.5c-0.1,1.4-0.5,2.7-0.9,4c-0.5,1.2-1,2.1-1.3,3s-0.8,1.4-0.9,1.9
			c-2,3.1-4.5,5.9-7.4,8.1C681.3,352.5,677.4,354.4,673.2,355.6z"/>
		<path d="M534,456.8c-5.7,1.5-9.9,5.6-11,10.2l-0.1,0.2l-14.4,65.2l-3.3,15l-0.8,3.5l-3.3,15l-1,4.8l-43.9-4.1l1-4.8l3.3-15
			l0.8-3.5l3.3-15l10.1-45.6c2.7,4.7,9.4,7.1,16.1,5.2c7.8-2.1,12.7-8.9,11-15.2s-9.4-9.9-17.1-7.7c-5.7,1.5-10,5.6-11,10.2v0.2
			L461.9,528l-43.9-4.3l7.3-33.2c2.7,4.7,9.4,7,16.1,5.2c7.8-2.1,12.7-8.9,10.9-15.2c-1.8-6.3-9.4-9.9-17.1-7.7
			c-5.7,1.5-9.9,5.6-11,10.2l-0.1,0.2l-8.9,40.3l-3.3,15l-0.8,3.5l-3.3,15l-1,4.8l-3.3,15l2.7,0.3l43.9,4l2.7,0.3l43.9,4.1l2.7,0.3
			l3.3-14.9l1-4.8l3.3-15l0.8-3.5l3.3-15l12.9-58.1c2.7,4.7,9.4,7.1,16.1,5.2c7.9-2,12.7-8.8,11-15.1
			C549.4,458.1,541.7,454.6,534,456.8z M414.5,538.8L414.5,538.8l43.9,4.1l-0.8,3.5l-43.9-4.1L414.5,538.8z M453.3,566l-43.9-4.1
			l1-4.8l43.9,4.1L453.3,566z"/>
		<path d="M651.6,458.5c-1-4.7-3-9.2-5.8-13.1c-1.1-1.4-2.2-2.9-3.3-4.3c-0.6-0.3-0.7,0-1.3,0.3l2.5,3.7c1.7,2.5,3.2,5.2,4.3,8.1
			c4,11.5-2.5,21.4-11.2,24.5h-0.1c-2.1-12-4.1-24.1-6.3-36.1c7,3.4,14-3.1,16.7-7.6c1.6-2.7,2.1-6.8-0.2-9.3
			c-1.4-1.6-3.8-1.7-6-2.1c-1.2,0.3-2.4,0.7-3.7,1c-4,1.7-7.8,5.1-9.2,9.3c-1.2,3.8,1.3,13.8,2.2,18.2c2.6,15.4,5.3,30.9,8,46.2
			c0.6-0.1,1.2-0.2,1.9-0.2c0-1.9-0.1-3.8-0.1-5.6c0.1-2.1,0.6-4.2,1.3-6.2c3-7.2,12.8-15,10.5-26.8L651.6,458.5z"/>
		<path d="M729.1,387L729.1,387c7.9-25.7-12.2-34.5-13.6-36.1c-0.8-0.9-1.3-2.1-1.4-3.3v-0.2l-2.3-0.2l-7,76.4
			c-2.4-2.2-6.8-3.2-11.5-2.5c-6.8,1-11.7,5.3-11,9.4s6.6,6.8,13.4,5.7c6.5-1,11.4-5,11.1-9l3.7-40.2c1.4,0.6,2.8,1.4,4,2.3
			c9.3,6.4,12.7,12.5,8.5,30.5c-0.1,0.5,0.3,0.6,0.5,0.1c2.6-6.8,3.6-12.5,3.3-17.3C728.6,397.8,729.4,392.4,729.1,387z M726.3,400
			c-1.9-13.4-12.6-18.5-13.6-19.7h0.1c-0.8-0.9-1.3-2.1-1.4-3.3l0.5-5.1c1.4,0.6,2.7,1.4,4,2.3C724.3,380.2,728.7,385.8,726.3,400z
			 M728.7,383.9c-2.6-12.6-13.5-17.6-14.4-18.7c-0.8-0.9-1.3-2.1-1.4-3.3l0.4-3.9c1.4,0.6,2.7,1.4,4,2.3
			C725.5,365.8,730.2,371.1,728.7,383.9z"/>
	</g>
</g>
</svg>
